<svg xmlns="http://www.w3.org/2000/svg" id="Layer_2" viewBox="0 0 307 307"><defs><style>.cls-1{fill:#f2f2f2;}.cls-3{fill:#fff;}</style></defs><g id="Layer_1-2"><circle fill="currentcolor" cx="153.5" cy="153.5" r="153.5"></circle><g><g><path class="cls-1" d="m100.47,141.33c-.43,2.24-1.74,5.23-8.16,5.23h-1.69v7.06h1.69c2.84,0,5.18-.3,7.07-.92v27.65h8.05v-40.4h-6.69l-.26,1.38Z"></path><path class="cls-1" d="m129.06,139.96c-8.98,0-13.53,6.92-13.53,20.56s4.55,20.46,13.53,20.46,13.56-6.88,13.56-20.46-4.56-20.56-13.56-20.56Zm3.74,31.52c-.89,1.66-2.08,2.43-3.74,2.43s-2.83-.77-3.72-2.43c-.72-1.35-1.59-4.34-1.59-10.96s.86-9.67,1.59-11.03c.89-1.68,2.07-2.46,3.72-2.46s2.85.78,3.74,2.46c.72,1.36,1.59,4.39,1.59,11.03s-.86,9.62-1.59,10.96Z"></path><path class="cls-1" d="m157.33,139.96c-8.98,0-13.53,6.92-13.53,20.56s4.55,20.46,13.53,20.46,13.56-6.88,13.56-20.46-4.56-20.56-13.56-20.56Zm3.74,31.52c-.89,1.66-2.08,2.43-3.74,2.43s-2.83-.77-3.72-2.43c-.72-1.35-1.59-4.34-1.59-10.96s.86-9.67,1.59-11.03c.89-1.68,2.07-2.46,3.72-2.46s2.85.78,3.74,2.46c.72,1.36,1.59,4.39,1.59,11.03s-.86,9.62-1.59,10.96Z"></path><path class="cls-1" d="m212.42,161.41c-1.88-2.1-4.31-3.16-7.23-3.16s-5.35,1.06-7.21,3.15c-1.81,2.03-2.72,4.79-2.72,8.2s.92,6.19,2.72,8.22c1.86,2.09,4.28,3.15,7.21,3.15s5.36-1.06,7.23-3.16c1.83-2.04,2.75-4.81,2.75-8.22s-.93-6.15-2.75-8.19Zm-7.23,3.28c.79,0,2.62,0,2.62,4.91s-1.84,4.93-2.62,4.93-2.57,0-2.57-4.93,1.8-4.91,2.57-4.91Z"></path><path class="cls-1" d="m190.15,159.51c1.83-2.03,2.75-4.79,2.75-8.21s-.93-6.17-2.75-8.21c-1.87-2.09-4.31-3.14-7.23-3.14s-5.35,1.06-7.21,3.15c-1.81,2.03-2.72,4.79-2.72,8.2s.92,6.17,2.72,8.2c1.86,2.09,4.28,3.15,7.21,3.15s5.35-1.06,7.23-3.14Zm-7.23-3.3c-.77,0-2.57,0-2.57-4.91s1.8-4.91,2.57-4.91,2.62,0,2.62,4.91-1.84,4.91-2.62,4.91Z"></path><polygon class="cls-1" points="201.18 140.58 179.45 180.35 186.93 180.35 208.64 140.58 201.18 140.58"></polygon></g><g><path class="cls-1" d="m84.72,230.92h-4.84v-17.13h-18.91v17.13h-4.82v-36.39h4.82v14.94h18.91v-14.94h4.84v36.39Z"></path><path class="cls-1" d="m110.94,231.54c-4.22,0-7.38-.82-9.47-2.46-2.09-1.64-3.42-3.57-3.97-5.78-.55-2.22-.83-4.79-.83-7.72v-21.05h4.82v20.97c0,4.78.8,7.93,2.41,9.43,1.6,1.51,3.95,2.26,7.05,2.26s5.44-.75,7.05-2.26c1.6-1.51,2.41-4.65,2.41-9.43v-20.97h4.84v21.05c0,4.4-.53,7.64-1.58,9.73-1.05,2.08-2.64,3.64-4.75,4.68-2.12,1.03-4.77,1.55-7.97,1.55Z"></path><path class="cls-1" d="m171.4,230.92h-4.57v-30.95l-10.37,30.95h-4.32l-10.37-30.95v30.95h-4.57v-36.39h7.22l9.85,30.33,9.9-30.33h7.22v36.39Z"></path><path class="cls-1" d="m213.23,230.92h-5.44l-4.22-11.07h-15.24l-4.02,11.07h-5.09l13.97-36.39h5.19l14.84,36.39Zm-11.07-14.89l-6.4-16.88-6.11,16.88h12.51Z"></path><path class="cls-1" d="m249.63,230.92h-4.94l-19.06-28.72v28.72h-4.57v-36.39h4.91l19.06,28.72v-28.72h4.59v36.39Z"></path><path class="cls-1" d="m77.18,268c-3.43,0-6.17-1.13-8.22-3.38-2.05-2.26-3.07-5.31-3.07-9.16s1.02-6.9,3.07-9.16c2.05-2.26,4.78-3.38,8.22-3.38,2.64,0,4.88.71,6.73,2.13s2.9,3.3,3.13,5.63h-3.31c-.13-1.53-.8-2.75-1.99-3.66-1.2-.9-2.71-1.36-4.53-1.36-2.46,0-4.41.85-5.84,2.54-1.43,1.69-2.15,4.11-2.15,7.26s.71,5.55,2.13,7.25c1.42,1.7,3.35,2.55,5.79,2.55,1.9,0,3.43-.46,4.6-1.39,1.17-.93,1.83-2.25,1.99-3.97h3.31c-.23,2.58-1.25,4.58-3.04,5.99-1.8,1.41-4.07,2.12-6.82,2.12Z"></path><path class="cls-1" d="m114.25,267.59h-3.47l-2.28-6.47c-.41-1.15-1.09-2.08-2.04-2.81-.95-.73-2.04-1.09-3.28-1.09h-5.94v10.37h-3.21v-24.26h10.74c1.88,0,3.41.18,4.6.55s2.16,1.13,2.91,2.3c.75,1.17,1.13,2.49,1.13,3.95,0,1.68-.49,3.08-1.46,4.2-.97,1.13-2.3,1.86-3.99,2.2v.07c1.69.54,2.97,2,3.86,4.38l2.43,6.6Zm-17.01-13.25h7.16c2,0,3.44-.31,4.34-.94.9-.63,1.35-1.72,1.35-3.26,0-2.76-1.73-4.14-5.2-4.14h-7.66v8.34Z"></path><path class="cls-1" d="m139.13,267.59h-18.09v-24.26h17.52v2.88h-14.31v7.41h13.39v2.88h-13.39v8.21h14.88v2.88Z"></path><path class="cls-1" d="m166.11,267.59h-3.62l-2.81-7.38h-10.16l-2.68,7.38h-3.39l9.32-24.26h3.46l9.89,24.26Zm-7.38-9.93l-4.27-11.25-4.07,11.25h8.34Z"></path><path class="cls-1" d="m188.58,246.21h-8.03v21.38h-3.23v-21.38h-7.96v-2.88h19.21v2.88Z"></path><path class="cls-1" d="m212.66,267.59h-18.09v-24.26h17.52v2.88h-14.31v7.41h13.39v2.88h-13.39v8.21h14.88v2.88Z"></path><path class="cls-1" d="m219.72,243.33h7.69c8.24,0,12.36,4,12.36,12s-4.12,12.26-12.36,12.26h-7.69v-24.26Zm3.21,21.38h4.42c3.52,0,5.92-.82,7.2-2.46s1.92-3.95,1.92-6.92-.64-5.15-1.91-6.73-3.68-2.38-7.21-2.38h-4.42v18.5Z"></path></g></g><g><path class="cls-3" d="m152.7,14.79c-9.83-.65-19.19,2.71-26.38,9.44-7.34,6.87-11.55,16.66-11.55,26.86v2.17c0,1.04-.18,2.06-.54,3.03l-10.51,21.2-.06.14c-.42,1.13-.27,2.39.42,3.37.68.99,1.81,1.58,3.01,1.58h6.4c.72,0,1.3.58,1.3,1.3v15.87c0,4.83,3.93,8.76,8.76,8.76h13.02c.49,0,.89.4.89.89v17.03c0,.84.68,1.52,1.52,1.52s1.52-.68,1.52-1.52v-17.03c0-2.17-1.76-3.93-3.93-3.93h-13.02c-3.15,0-5.72-2.57-5.72-5.72v-15.87c0-2.39-1.94-4.34-4.34-4.34h-6.4c-.28,0-.44-.17-.51-.27-.06-.09-.16-.28-.09-.52l10.5-21.19.06-.14c.5-1.34.76-2.74.76-4.17v-2.17c0-9.36,3.86-18.34,10.58-24.64,6.57-6.15,15.13-9.21,24.1-8.62,17.02,1.12,30.35,15.37,30.35,32.44,0,2.77-.45,5.33-.92,8.04-.1.55-.19,1.1-.29,1.66-4.28,14.83-6.51,28.62-7.63,37.58-.67,5.34-.57,10.76.29,16.13l2.08,12.99c.12.75.77,1.28,1.5,1.28.08,0,.16,0,.24-.02.83-.13,1.39-.91,1.26-1.74l-2.08-12.99c-.82-5.09-.91-10.23-.28-15.28,1.11-8.87,3.32-22.53,7.56-37.2l.04-.17c.1-.59.2-1.16.3-1.73.5-2.84.97-5.53.97-8.56,0-18.67-14.58-34.25-33.18-35.47Z"></path><path class="cls-3" d="m124.54,42.85c.34,4.1,3.94,7.32,8.2,7.32h35.18c4.38,0,8-3.32,8.24-7.55.22-3.92-2.4-7.39-6.22-8.25h0c-.08-.02-.13-.07-.16-.13-1.28-3.33-4.53-5.56-8.09-5.56-1.94,0-3.77.64-5.24,1.76-.31-1.28-.89-2.36-1.72-3.22-1.45-1.5-3.62-2.21-6.13-2-2.48.21-4.36,1.26-5.42,2.94-1.38-1.36-3.17-2.23-5.12-2.5-.37-.06-.6-.08-.61-.08-.02,0-.04,0-.06,0-.28-.02-.56-.03-.84-.02-3.26.1-6.35,2.14-7.86,5.2-.78,1.58-1.07,3.23-.86,4.93-2.25,1.63-3.52,4.33-3.28,7.16Zm5.67-5.08s.02-.02.03-.02c.02,0,.04-.01.05-.02.28-.16,2.82-1.49,5.93,2.18.3.36.73.54,1.16.54.35,0,.7-.12.98-.36.64-.54.72-1.5.18-2.14-2.75-3.25-5.65-3.84-7.72-3.54.03-.78.21-1.55.59-2.3,1.02-2.07,3.07-3.44,5.23-3.51.06,0,.12,0,.18,0,.29,0,.58.02.87.06.02,0,.04,0,.06.01.17.03.33.07.49.11,1.65.44,4.92,2.1,4.92,8.35,0,.84.68,1.52,1.52,1.52s1.52-.68,1.52-1.52c0-2.27-.37-4.1-.95-5.56.03-.82.2-3.03,3.62-3.32.91-.08,2.6-.04,3.69,1.08.96.99,1.32,2.74,1.05,5.05-.09.75.39,1.45,1.12,1.65.73.19,1.49-.18,1.79-.88.88-2.09,2.92-3.44,5.19-3.44s4.42,1.45,5.25,3.61c.39,1.02,1.26,1.77,2.33,2.01,2.37.53,3.99,2.69,3.86,5.12-.14,2.58-2.48,4.68-5.2,4.68h-1.15c.5-1.14.85-2.66.85-4.6,0-.84-.68-1.52-1.52-1.52s-1.52.68-1.52,1.52c0,3.06-.99,4.22-1.25,4.36-.12.07-.23.15-.33.24h-12.7c.94-1.22,1.53-2.85,1.53-4.96,0-.84-.68-1.52-1.52-1.52s-1.52.68-1.52,1.52c0,3.84-2.71,4.81-4.99,4.95,0,0-.01,0-.02,0h-11.04c-2.69,0-4.96-1.99-5.17-4.53-.17-2,.87-3.89,2.64-4.82Z"></path></g></g></svg>